<svg xmlns="http://www.w3.org/2000/svg" xmlns:xlink="http://www.w3.org/1999/xlink" width="140" zoomAndPan="magnify" viewBox="0 0 104.88 30.000001" height="40" preserveAspectRatio="xMidYMid meet" version="1.0"><defs><g/><clipPath id="dcb99ef5b2"><path d="M 1.632812 0 L 103.128906 0 L 103.128906 29.03125 L 1.632812 29.03125 Z M 1.632812 0 " clip-rule="nonzero"/></clipPath><clipPath id="c1c55967ce"><path d="M 90 5 L 103.128906 5 L 103.128906 23 L 90 23 Z M 90 5 " clip-rule="nonzero"/></clipPath><clipPath id="8919c192b1"><path d="M 1.632812 1.019531 L 24 1.019531 L 24 23 L 1.632812 23 Z M 1.632812 1.019531 " clip-rule="nonzero"/></clipPath><clipPath id="1d1c0ae15c"><path d="M 6 13 L 22 13 L 22 29.03125 L 6 29.03125 Z M 6 13 " clip-rule="nonzero"/></clipPath><clipPath id="cd779eea04"><path d="M 4 12 L 23 12 L 23 29.03125 L 4 29.03125 Z M 4 12 " clip-rule="nonzero"/></clipPath><clipPath id="5b448af9d3"><path d="M 4 1.019531 L 22 1.019531 L 22 15 L 4 15 Z M 4 1.019531 " clip-rule="nonzero"/></clipPath><clipPath id="d0eaebd804"><path d="M 1.632812 6 L 11 6 L 11 26 L 1.632812 26 Z M 1.632812 6 " clip-rule="nonzero"/></clipPath></defs><g clip-path="url(#dcb99ef5b2)"><path fill="#ffffff" d="M 1.632812 0 L 103.246094 0 L 103.246094 29.03125 L 1.632812 29.03125 Z M 1.632812 0 " fill-opacity="1" fill-rule="nonzero"/><path fill="#ffffff" d="M 1.632812 0 L 103.246094 0 L 103.246094 29.03125 L 1.632812 29.03125 Z M 1.632812 0 " fill-opacity="1" fill-rule="nonzero"/></g><g fill="#000000" fill-opacity="1"><g transform="translate(27.504335, 22.344762)"><g><path d="M 1.09375 -1.070312 C 3.347656 0.09375 5.417969 0.210938 6.347656 0.140625 C 9.460938 -0.0234375 11.367188 -2.136719 11.367188 -4.90625 C 11.367188 -7.554688 9.136719 -9.042969 6.554688 -9.996094 C 5.601562 -10.320312 4.789062 -10.738281 4.695312 -11.667969 C 4.625 -12.597656 5.160156 -13.460938 6.347656 -13.527344 C 6.859375 -13.550781 7.902344 -13.574219 9.738281 -12.832031 L 10.160156 -16.039062 C 8.019531 -16.785156 6.882812 -16.785156 6.019531 -16.738281 C 3.253906 -16.597656 1.324219 -14.460938 1.324219 -11.667969 C 1.324219 -8.878906 3.648438 -7.554688 6.253906 -6.601562 C 7.183594 -6.277344 7.902344 -5.859375 7.972656 -4.90625 C 8.066406 -4 7.230469 -3.300781 6.253906 -3.230469 C 5.484375 -3.160156 3.417969 -3.207031 1.511719 -4.554688 Z M 1.09375 -1.070312 "/></g></g></g><g fill="#000000" fill-opacity="1"><g transform="translate(39.796641, 22.344762)"><g><path d="M 10.460938 0 L 10.460938 -3.324219 L 5.183594 -3.324219 L 5.183594 -6.648438 L 9.554688 -6.648438 L 9.554688 -9.972656 L 5.183594 -9.972656 L 5.183594 -13.296875 L 10.183594 -13.296875 L 10.183594 -16.621094 L 1.859375 -16.621094 L 1.859375 0 Z M 10.460938 0 "/></g></g></g><g fill="#000000" fill-opacity="1"><g transform="translate(51.50803, 22.344762)"><g><path d="M 10.460938 0 L 10.460938 -3.324219 L 5.183594 -3.324219 L 5.183594 -6.648438 L 9.554688 -6.648438 L 9.554688 -9.972656 L 5.183594 -9.972656 L 5.183594 -13.296875 L 10.183594 -13.296875 L 10.183594 -16.621094 L 1.859375 -16.621094 L 1.859375 0 Z M 10.460938 0 "/></g></g></g><g fill="#000000" fill-opacity="1"><g transform="translate(63.219418, 22.344762)"><g><path d="M 1.859375 0 L 5.183594 0 L 5.183594 -6.507812 L 9.601562 0 L 13.714844 0 L 7.855469 -8.414062 L 13.25 -16.621094 L 9.367188 -16.621094 L 5.183594 -9.996094 L 5.183594 -16.621094 L 1.859375 -16.621094 Z M 1.859375 0 "/></g></g></g><g fill="#000000" fill-opacity="1"><g transform="translate(77.254491, 22.344762)"><g><path d="M 10.460938 0 L 10.460938 -3.324219 L 5.183594 -3.324219 L 5.183594 -6.648438 L 9.554688 -6.648438 L 9.554688 -9.972656 L 5.183594 -9.972656 L 5.183594 -13.296875 L 10.183594 -13.296875 L 10.183594 -16.621094 L 1.859375 -16.621094 L 1.859375 0 Z M 10.460938 0 "/></g></g></g><g clip-path="url(#c1c55967ce)"><g fill="#000000" fill-opacity="1"><g transform="translate(88.965879, 22.344762)"><g><path d="M 10.136719 0 L 13.902344 0 L 10.042969 -6.859375 C 14.925781 -8.277344 14.34375 -16.621094 8.414062 -16.621094 L 1.859375 -16.621094 L 1.859375 0 L 5.183594 0 L 5.183594 -6.347656 L 6.789062 -6.347656 Z M 5.183594 -9.578125 L 5.183594 -13.296875 L 8.113281 -13.296875 C 10.367188 -13.296875 10.367188 -9.578125 8.113281 -9.578125 Z M 5.183594 -9.578125 "/></g></g></g></g><g clip-path="url(#8919c192b1)"><path fill="#5271ff" d="M 23.890625 11.972656 C 23.890625 12.691406 23.820312 13.402344 23.679688 14.109375 C 23.539062 14.816406 23.332031 15.5 23.054688 16.164062 C 22.78125 16.828125 22.445312 17.460938 22.042969 18.058594 C 21.644531 18.65625 21.191406 19.207031 20.683594 19.714844 C 20.175781 20.226562 19.621094 20.679688 19.023438 21.078125 C 18.425781 21.476562 17.792969 21.816406 17.128906 22.089844 C 16.464844 22.367188 15.78125 22.574219 15.074219 22.714844 C 14.371094 22.855469 13.65625 22.925781 12.9375 22.925781 C 12.21875 22.925781 11.507812 22.855469 10.800781 22.714844 C 10.097656 22.574219 9.414062 22.367188 8.746094 22.089844 C 8.082031 21.816406 7.453125 21.476562 6.855469 21.078125 C 6.257812 20.679688 5.703125 20.226562 5.195312 19.714844 C 4.6875 19.207031 4.234375 18.65625 3.832031 18.058594 C 3.433594 17.460938 3.097656 16.828125 2.820312 16.164062 C 2.546875 15.5 2.339844 14.816406 2.199219 14.109375 C 2.058594 13.402344 1.988281 12.691406 1.988281 11.972656 C 1.988281 11.253906 2.058594 10.542969 2.199219 9.835938 C 2.339844 9.132812 2.546875 8.445312 2.820312 7.78125 C 3.097656 7.117188 3.433594 6.488281 3.832031 5.886719 C 4.234375 5.289062 4.6875 4.738281 5.195312 4.230469 C 5.703125 3.71875 6.257812 3.265625 6.855469 2.867188 C 7.453125 2.46875 8.082031 2.128906 8.746094 1.855469 C 9.414062 1.578125 10.097656 1.371094 10.800781 1.230469 C 11.507812 1.089844 12.21875 1.019531 12.9375 1.019531 C 13.65625 1.019531 14.371094 1.089844 15.074219 1.230469 C 15.78125 1.371094 16.464844 1.578125 17.128906 1.855469 C 17.792969 2.128906 18.425781 2.46875 19.023438 2.867188 C 19.621094 3.265625 20.175781 3.71875 20.683594 4.230469 C 21.191406 4.738281 21.644531 5.289062 22.042969 5.886719 C 22.445312 6.488281 22.78125 7.117188 23.054688 7.78125 C 23.332031 8.445312 23.539062 9.132812 23.679688 9.835938 C 23.820312 10.542969 23.890625 11.253906 23.890625 11.972656 Z M 23.890625 11.972656 " fill-opacity="1" fill-rule="nonzero"/></g><g clip-path="url(#1d1c0ae15c)"><path fill="#ffffff" d="M 20.210938 30.894531 C 20.210938 28.609375 19.351562 21.21875 19.351562 21.21875 L 21.074219 20.628906 C 21.074219 20.628906 20.160156 16.894531 18.816406 15.441406 C 17.472656 13.988281 14.488281 13.804688 14.488281 13.804688 C 13.734375 14.691406 12.527344 13.9375 12.527344 13.9375 C 8.925781 13.964844 6.71875 19.285156 6.71875 19.285156 L 8.761719 20.789062 C 8.761719 20.789062 8.210938 26.855469 8.269531 30.894531 " fill-opacity="1" fill-rule="nonzero"/></g><g clip-path="url(#cd779eea04)"><path stroke-linecap="butt" transform="matrix(0.421044, 0, 0, 0.421044, 1.987361, 1.021425)" fill="none" stroke-linejoin="miter" d="M 43.281837 70.95001 C 43.281837 65.522658 41.240781 47.969582 41.240781 47.969582 L 45.33217 46.568676 C 45.33217 46.568676 43.161229 37.699362 39.96976 34.248123 C 36.778292 30.796884 29.690263 30.360841 29.690263 30.360841 C 27.899701 32.466839 25.032946 30.676276 25.032946 30.676276 C 16.479069 30.741219 11.237267 43.377207 11.237267 43.377207 L 16.089413 46.949054 C 16.089413 46.949054 14.781282 61.35705 14.920444 70.95001 " stroke="#000000" stroke-width="0.3" stroke-opacity="1" stroke-miterlimit="10"/></g><path stroke-linecap="butt" transform="matrix(0.421044, 0, 0, 0.421044, 1.987361, 1.021425)" fill-opacity="1" fill="#ffffff" fill-rule="nonzero" stroke-linejoin="miter" d="M 29.690263 25.972572 L 29.690263 30.611334 C 29.690263 30.611334 29.801594 35.352149 25.840091 37.207654 C 25.840091 37.207654 23.734093 34.470784 25.032946 30.676276 L 25.032946 27.234315 Z M 29.690263 25.972572 " stroke="#000000" stroke-width="0.3" stroke-opacity="1" stroke-miterlimit="10"/><path stroke-linecap="butt" transform="matrix(0.421044, 0, 0, 0.421044, 1.987361, 1.021425)" fill-opacity="1" fill="#ffffff" fill-rule="nonzero" stroke-linejoin="miter" d="M 32.881732 23.365587 C 32.464243 24.645886 31.193222 26.668386 28.706846 27.893019 C 26.944116 28.755829 24.559792 29.228983 21.442544 28.737274 C 14.373071 27.651804 17.054275 12.733544 17.054275 12.733544 C 17.054275 12.733544 17.211993 10.293555 25.357659 9.477133 C 31.443716 8.883372 32.844622 15.572467 33.048727 19.738075 C 33.521881 19.311309 34.189863 18.995873 35.071228 19.385529 C 36.843235 20.183396 35.785597 24.738661 32.881732 23.365587 Z M 32.881732 23.365587 " stroke="#000000" stroke-width="0.3" stroke-opacity="1" stroke-miterlimit="10"/><path fill="#000000" d="M 14.257812 6.492188 C 14.257812 6.492188 12.964844 6.851562 12.363281 5.980469 C 12.363281 5.980469 11.414062 6.441406 11.007812 6.195312 C 11.007812 6.195312 10.25 7.230469 9.019531 7.128906 C 7.792969 7.03125 7.257812 5.039062 8.585938 4.355469 C 8.585938 4.355469 8.507812 2.652344 10.125 2.382812 C 11.738281 2.113281 12.195312 3.121094 12.195312 3.121094 C 12.195312 3.121094 12.632812 2.582031 13.226562 2.601562 C 13.820312 2.613281 14.195312 3.109375 14.195312 3.109375 C 14.195312 3.109375 14.84375 2.636719 15.84375 2.828125 C 16.84375 3.015625 16.898438 4.519531 16.898438 4.519531 C 16.898438 4.519531 17.300781 4.171875 17.949219 4.871094 C 18.597656 5.570312 18.882812 7.421875 18.25 8.175781 C 18.25 8.175781 18.945312 8.929688 18.054688 10.179688 C 17.15625 11.429688 16.042969 10.972656 16.042969 10.972656 C 16.042969 10.972656 16.582031 11.03125 16.855469 10.6875 C 17.128906 10.347656 17.378906 9.625 16.886719 9.269531 C 16.390625 8.914062 15.914062 9.335938 15.914062 9.335938 C 15.914062 9.335938 14.1875 7.902344 14.257812 6.492188 Z M 14.257812 6.492188 " fill-opacity="1" fill-rule="nonzero"/><g clip-path="url(#5b448af9d3)"><path stroke-linecap="butt" transform="matrix(0.421044, 0, 0, 0.421044, 1.987361, 1.021425)" fill="none" stroke-linejoin="miter" d="M 29.142889 12.993315 C 29.142889 12.993315 26.072029 13.846847 24.64329 11.777959 C 24.64329 11.777959 22.388852 12.872707 21.423989 12.288223 C 21.423989 12.288223 19.624149 14.746767 16.701729 14.505551 C 13.788586 14.273613 12.517566 9.542076 15.671924 7.918509 C 15.671924 7.918509 15.486373 3.873508 19.327269 3.233359 C 23.158886 2.59321 24.244357 4.986811 24.244357 4.986811 C 24.244357 4.986811 25.283439 3.706513 26.693623 3.7529 C 28.103807 3.780733 28.994449 4.958979 28.994449 4.958979 C 28.994449 4.958979 30.534518 3.836398 32.909564 4.290997 C 35.284611 4.736318 35.414496 8.308165 35.414496 8.308165 C 35.414496 8.308165 36.370081 7.482465 37.91015 9.143142 C 39.450219 10.803819 40.127478 15.201366 38.624519 16.991928 C 38.624519 16.991928 40.275919 18.78249 38.160643 21.751298 C 36.026813 24.720106 33.382718 23.634635 33.382718 23.634635 C 33.382718 23.634635 34.663017 23.773798 35.312443 22.957376 C 35.96187 22.150231 36.555631 20.433889 35.386663 19.589635 C 34.208418 18.74538 33.07656 19.747353 33.07656 19.747353 C 33.07656 19.747353 28.975894 16.342501 29.142889 12.993315 Z M 29.142889 12.993315 " stroke="#000000" stroke-width="0.5" stroke-opacity="1" stroke-miterlimit="10"/></g><path fill="#ffffff" d="M 8.394531 13.203125 L 7.332031 19.734375 L 8.761719 20.785156 C 8.761719 20.785156 7.855469 24.980469 4.773438 23.507812 C 1.695312 22.039062 6.71875 12.902344 6.71875 12.902344 C 6.71875 12.902344 6.535156 8.933594 7.257812 8.667969 L 8.960938 10.230469 C 8.960938 10.230469 8.996094 11.265625 8.960938 11.953125 C 8.925781 12.640625 8.394531 13.203125 8.394531 13.203125 Z M 8.394531 13.203125 " fill-opacity="1" fill-rule="nonzero"/><g clip-path="url(#d0eaebd804)"><path stroke-linecap="butt" transform="matrix(0.421044, 0, 0, 0.421044, 1.987361, 1.021425)" fill="none" stroke-linejoin="miter" d="M 15.217325 28.932102 L 12.693839 44.444123 L 16.089413 46.939777 C 16.089413 46.939777 13.937027 56.903838 6.61706 53.406211 C -0.693629 49.917862 11.237267 28.217732 11.237267 28.217732 C 11.237267 28.217732 10.801224 18.791768 12.517566 18.160896 L 16.562566 21.871906 C 16.562566 21.871906 16.646064 24.33045 16.562566 25.963294 C 16.479069 27.596138 15.217325 28.932102 15.217325 28.932102 Z M 15.217325 28.932102 " stroke="#000000" stroke-width="0.3" stroke-opacity="1" stroke-miterlimit="10"/></g><path fill="#000000" d="M 11.28125 9.089844 C 11.28125 9.605469 10.882812 10.039062 10.371094 10.085938 L 7.550781 10.34375 L 7.550781 7.863281 L 10.363281 8.09375 C 10.878906 8.132812 11.28125 8.566406 11.28125 9.089844 Z M 11.28125 9.089844 " fill-opacity="1" fill-rule="nonzero"/><path stroke-linecap="butt" transform="matrix(0.421044, 0, 0, 0.421044, 1.987361, 1.021425)" fill-opacity="1" fill="#ffffff" fill-rule="nonzero" stroke-linejoin="miter" d="M 15.894585 19.190701 C 15.894585 20.665828 14.688506 21.871906 13.21338 21.871906 C 11.728976 21.871906 10.532175 20.665828 10.532175 19.190701 C 10.532175 17.706297 11.728976 16.509497 13.21338 16.509497 C 14.688506 16.509497 15.894585 17.706297 15.894585 19.190701 Z M 15.894585 19.190701 " stroke="#000000" stroke-width="0.3" stroke-opacity="1" stroke-miterlimit="10"/><path fill="#000000" d="M 8.375 9.101562 C 8.375 9.554688 8.003906 9.925781 7.550781 9.925781 C 7.09375 9.925781 6.722656 9.554688 6.722656 9.101562 C 6.722656 8.648438 7.09375 8.277344 7.550781 8.277344 C 8.003906 8.277344 8.375 8.648438 8.375 9.101562 Z M 8.375 9.101562 " fill-opacity="1" fill-rule="nonzero"/><path fill="#000000" d="M 14.851562 9.089844 C 14.851562 9.605469 14.453125 10.039062 13.941406 10.085938 L 11.121094 10.34375 L 11.121094 7.863281 L 13.933594 8.09375 C 14.449219 8.132812 14.851562 8.566406 14.851562 9.089844 Z M 14.851562 9.089844 " fill-opacity="1" fill-rule="nonzero"/><path stroke-linecap="butt" transform="matrix(0.421044, 0, 0, 0.421044, 1.987361, 1.021425)" fill-opacity="1" fill="#ffffff" fill-rule="nonzero" stroke-linejoin="miter" d="M 24.374242 19.190701 C 24.374242 20.665828 23.168164 21.871906 21.693037 21.871906 C 20.208633 21.871906 19.011833 20.665828 19.011833 19.190701 C 19.011833 17.706297 20.208633 16.509497 21.693037 16.509497 C 23.168164 16.509497 24.374242 17.706297 24.374242 19.190701 Z M 24.374242 19.190701 " stroke="#000000" stroke-width="0.3" stroke-opacity="1" stroke-miterlimit="10"/><path fill="#000000" d="M 11.945312 9.101562 C 11.945312 9.554688 11.574219 9.925781 11.121094 9.925781 C 10.664062 9.925781 10.292969 9.554688 10.292969 9.101562 C 10.292969 8.648438 10.664062 8.277344 11.121094 8.277344 C 11.574219 8.277344 11.945312 8.648438 11.945312 9.101562 Z M 11.945312 9.101562 " fill-opacity="1" fill-rule="nonzero"/><path stroke-linecap="butt" transform="matrix(0.421044, 0, 0, 0.421044, 1.987361, 1.021425)" fill-opacity="1" fill="#ffffff" fill-rule="nonzero" stroke-linejoin="miter" d="M 18.130468 15.442581 C 18.130468 15.442581 19.828255 15.943568 19.679814 16.87132 C 19.531374 17.80835 17.03572 15.999233 17.03572 15.999233 C 17.03572 15.999233 17.128495 15.433304 18.130468 15.442581 Z M 18.130468 15.442581 " stroke="#000000" stroke-width="0.3" stroke-opacity="1" stroke-miterlimit="10"/><path stroke-linecap="butt" transform="matrix(0.421044, 0, 0, 0.421044, 1.987361, 1.021425)" fill-opacity="1" fill="#ffffff" fill-rule="nonzero" stroke-linejoin="miter" d="M 16.367738 15.526079 C 16.367738 15.526079 18.065525 16.027065 17.917085 16.964095 C 17.768644 17.891848 15.282268 16.092008 15.282268 16.092008 C 15.282268 16.092008 15.356488 15.507524 16.367738 15.526079 Z M 16.367738 15.526079 " stroke="#000000" stroke-width="0.3" stroke-opacity="1" stroke-miterlimit="10"/><path stroke-linecap="butt" transform="matrix(0.421044, 0, 0, 0.421044, 1.987361, 1.021425)" fill-opacity="1" fill="#ffffff" fill-rule="nonzero" stroke-linejoin="miter" d="M 14.595731 15.618854 C 14.595731 15.618854 16.302796 16.119841 16.154355 17.047593 C 15.996637 17.984623 13.510261 16.175506 13.510261 16.175506 C 13.510261 16.175506 13.593758 15.600299 14.595731 15.618854 Z M 14.595731 15.618854 " stroke="#000000" stroke-width="0.3" stroke-opacity="1" stroke-miterlimit="10"/><path stroke-linecap="butt" transform="matrix(0.421044, 0, 0, 0.421044, 1.987361, 1.021425)" fill-opacity="1" fill="#ffffff" fill-rule="nonzero" stroke-linejoin="miter" d="M 16.386293 24.849991 C 16.386293 24.849991 16.88728 23.068706 18.195411 22.688328 C 19.512819 22.307949 19.985973 21.380197 19.011833 21.40803 C 18.037693 21.435862 16.154355 21.59358 15.736867 21.871906 " stroke="#000000" stroke-width="0.3" stroke-opacity="1" stroke-miterlimit="10"/><path stroke-linecap="butt" transform="matrix(0.421044, 0, 0, 0.421044, 1.987361, 1.021425)" fill-opacity="1" fill="#ffffff" fill-rule="nonzero" stroke-linejoin="miter" d="M 40.377972 55.428712 C 33.744542 56.068861 30.367523 26.223065 30.367523 26.223065 C 30.367523 26.223065 28.53985 24.349005 28.28008 22.261562 C 28.029587 20.183396 26.248302 17.214588 24.60618 16.500219 C 24.60618 16.500219 25.552487 16.073453 26.424575 16.630104 C 26.424575 16.630104 28.651181 16.268281 30.553073 16.286836 C 33.11367 16.305391 33.818762 19.960736 34.412523 22.131676 C 35.006285 24.302617 34.570241 25.397365 34.570241 25.397365 L 43.810656 46.828447 C 43.810656 46.828447 47.020679 54.788563 40.377972 55.428712 Z M 40.377972 55.428712 " stroke="#000000" stroke-width="0.3" stroke-opacity="1" stroke-miterlimit="10"/><path stroke-linecap="butt" transform="matrix(0.421044, 0, 0, 0.421044, 1.987361, 1.021425)" fill="none" stroke-linejoin="miter" d="M 29.690263 19.691688 C 29.690263 19.691688 29.013004 17.65991 27.630653 16.472387 " stroke="#000000" stroke-width="0.5" stroke-opacity="1" stroke-miterlimit="10"/><path stroke-linecap="butt" transform="matrix(0.421044, 0, 0, 0.421044, 1.987361, 1.021425)" fill="none" stroke-linejoin="miter" d="M 30.933452 19.190701 C 30.933452 19.190701 30.543796 17.381584 29.523268 16.323946 " stroke="#000000" stroke-width="0.5" stroke-opacity="1" stroke-miterlimit="10"/><path stroke-linecap="butt" transform="matrix(0.421044, 0, 0, 0.421044, 1.987361, 1.021425)" fill="none" stroke-linejoin="miter" d="M 31.452993 16.472387 C 31.452993 16.472387 32.111697 17.966068 32.241583 18.698992 " stroke="#000000" stroke-width="0.5" stroke-opacity="1" stroke-miterlimit="10"/><path stroke-linecap="butt" transform="matrix(0.421044, 0, 0, 0.421044, 1.987361, 1.021425)" fill="none" stroke-linejoin="miter" d="M 31.991089 36.762333 C 31.991089 36.762333 32.185917 39.721863 30.22836 40.009466 C 28.261525 40.306347 25.840091 37.198376 25.840091 37.198376 C 25.840091 37.198376 23.687705 40.473342 22.58368 40.028021 C 21.470377 39.5827 20.422016 34.470784 21.693037 31.344258 " stroke="#000000" stroke-width="0.3" stroke-opacity="1" stroke-miterlimit="10"/><path fill="#000000" d="M 13.167969 19.011719 C 13.167969 19.160156 13.046875 19.28125 12.898438 19.28125 C 12.746094 19.28125 12.632812 19.164062 12.632812 19.011719 C 12.632812 18.859375 12.75 18.746094 12.898438 18.746094 C 13.042969 18.746094 13.167969 18.867188 13.167969 19.011719 Z M 13.167969 19.011719 " fill-opacity="1" fill-rule="nonzero"/><path fill="#000000" d="M 13.167969 22.613281 C 13.167969 22.761719 13.046875 22.882812 12.898438 22.882812 C 12.746094 22.882812 12.632812 22.765625 12.632812 22.613281 C 12.632812 22.460938 12.75 22.347656 12.898438 22.347656 C 13.042969 22.347656 13.167969 22.464844 13.167969 22.613281 Z M 13.167969 22.613281 " fill-opacity="1" fill-rule="nonzero"/><path fill="#000000" d="M 13.167969 26.210938 C 13.167969 26.359375 13.046875 26.480469 12.898438 26.480469 C 12.746094 26.480469 12.632812 26.363281 12.632812 26.210938 C 12.632812 26.066406 12.75 25.945312 12.898438 25.945312 C 13.042969 25.945312 13.167969 26.066406 13.167969 26.210938 Z M 13.167969 26.210938 " fill-opacity="1" fill-rule="nonzero"/><path stroke-linecap="butt" transform="matrix(0.421044, 0, 0, 0.421044, 1.987361, 1.021425)" fill-opacity="1" fill="#ffffff" fill-rule="nonzero" stroke-linejoin="miter" d="M 20.357074 24.135622 C 20.357074 24.135622 22.62079 24.933489 24.133026 23.476917 " stroke="#000000" stroke-width="0.3" stroke-opacity="1" stroke-miterlimit="10"/><path stroke-linecap="butt" transform="matrix(0.421044, 0, 0, 0.421044, 1.987361, 1.021425)" fill-opacity="1" fill="#ffffff" fill-rule="nonzero" stroke-linejoin="miter" d="M 16.089413 46.939777 L 18.371684 42.727781 " stroke="#000000" stroke-width="0.3" stroke-opacity="1" stroke-miterlimit="10"/></svg>